<?xml version="1.0" encoding="UTF-8"?>
<!DOCTYPE svg PUBLIC "-//W3C//DTD SVG 1.1//EN" "http://www.w3.org/Graphics/SVG/1.1/DTD/svg11.dtd">
<!-- Creator: CorelDRAW X7 -->
<svg xmlns="http://www.w3.org/2000/svg" xml:space="preserve" width="1320px" height="1320px" version="1.1" style="shape-rendering:geometricPrecision; text-rendering:geometricPrecision; image-rendering:optimizeQuality; fill-rule:evenodd; clip-rule:evenodd"
viewBox="0 0 272998 272998"
 xmlns:xlink="http://www.w3.org/1999/xlink">
 <defs>
  <style type="text/css">
   <![CDATA[
    .fil0 {fill:#A9DFE9}
    .fil1 {fill:white}
   ]]>
  </style>
 </defs>
 <g id="Layer_x0020_1">
  <metadata id="CorelCorpID_0Corel-Layer"/>
  <circle class="fil0" cx="136499" cy="136499" r="136499"/>
  <g id="_1808136978336">
   <path class="fil1" d="M105111 87262c0,-6428 -5244,-11672 -11673,-11672 -6428,0 -11672,5244 -11672,11672 0,6429 5244,11673 11672,11673 6429,0 11673,-5244 11673,-11673z"/>
   <path class="fil1" d="M65652 111702l438 -1235c1107,-3120 4471,-4818 7639,-3856l-2071 -343 13322 -4059 -6696 6535 121 44265c10,3529 -2848,6394 -6376,6394 -3522,0 -6377,-2855 -6377,-6376l0 -41325z"/>
   <path class="fil1" d="M80006 103458l5790 -1712 6630 1712 0 94047c0,3429 -2780,6210 -6210,6210 -3430,0 -6210,-2781 -6210,-6210l0 -94047z"/>
   <path class="fil1" d="M95109 103268l5791 -1712 6630 1712 0 94046c0,3430 -2781,6210 -6210,6210 -3430,0 -6211,-2780 -6211,-6210l0 -94046z"/>
   <polygon class="fil1" points="85529,154675 102887,154675 102887,101699 85529,101699 "/>
   <polygon class="fil1" points="76675,106859 80407,106859 80407,117490 76995,118614 "/>
   <path class="fil1" d="M98923 102067l33563 -20256c3211,-1938 7384,-906 9322,2304 1938,3211 906,7385 -2305,9322l-33563 20256 -7017 -11626z"/>
   <path class="fil1" d="M168497 87807c0,-6429 5244,-11672 11672,-11672 6429,0 11673,5243 11673,11672 0,6429 -5244,11672 -11673,11672 -6428,0 -11672,-5243 -11672,-11672z"/>
   <path class="fil1" d="M207956 112247l-438 -1236c-1107,-3119 -4471,-4817 -7638,-3855l2071 -344 -13323 -4058 6696 6535 -120 44265c-10,3528 2848,6394 6376,6394 3521,0 6376,-2855 6376,-6377l0 -41324z"/>
   <path class="fil1" d="M194440 104524l-5804 -1699 -6647 1699 0 93237c0,3438 2787,6225 6226,6225 3438,0 6225,-2787 6225,-6225l0 -93237z"/>
   <path class="fil1" d="M178877 104524l-5805 -1699 -6646 1699 0 93237c0,3438 2788,6225 6226,6225 3438,0 6225,-2787 6225,-6225l0 -93237z"/>
   <polygon class="fil1" points="188079,155220 170721,155220 170721,102244 188079,102244 "/>
   <polygon class="fil1" points="196933,107404 193201,107404 193201,118035 196613,119159 "/>
   <path class="fil1" d="M174685 102611l-33563 -20256c-3210,-1937 -7384,-906 -9322,2305 -1937,3210 -906,7384 2305,9322l33563 20256 7017 -11627z"/>
  </g>
 </g>
</svg>
